<svg width="78" height="78" viewBox="0 0 78 78" fill="none" xmlns="http://www.w3.org/2000/svg">
<rect width="78" height="78" rx="12" fill="url(#paint0_linear_103_28)"/>
<path d="M49.7949 11C50.4521 11 51.1094 11.0002 51.7656 11.0039C52.3192 11.0076 52.8722 11.0137 53.4258 11.0283C54.6311 11.0613 55.8466 11.1322 57.0391 11.3467C58.2481 11.5639 59.3745 11.9184 60.4727 12.4775C61.5533 13.0275 62.5404 13.7464 63.3975 14.6025C64.2545 15.4596 64.9725 16.4467 65.5225 17.5273C66.0825 18.6263 66.437 19.7521 66.6543 20.9619C66.8679 22.1536 66.9396 23.3698 66.9717 24.5752C66.9863 25.1279 66.9924 25.6817 66.9961 26.2344C66.9998 26.8916 67 27.5479 67 28.2051V48.7949C67 49.452 66.9998 50.1085 66.9961 50.7656C66.9924 51.3182 66.9863 51.8722 66.9717 52.4248C66.9396 53.6302 66.8679 54.8464 66.6543 56.0381C66.437 57.248 66.0825 58.3746 65.5225 59.4736C64.9725 60.5534 64.2545 61.5404 63.3975 62.3965C62.5404 63.2544 61.5533 63.9725 60.4727 64.5225C59.3745 65.0816 58.2481 65.4361 57.0391 65.6533C55.8466 65.8669 54.6311 65.9396 53.4258 65.9717C52.8722 65.9863 52.3192 65.9924 51.7656 65.9961C51.1094 65.9998 50.4521 66 49.7949 66H29.2051C28.5489 66 27.8915 65.9998 27.2354 65.9961C26.6818 65.9924 26.1278 65.9863 25.5752 65.9717C24.3698 65.9396 23.1526 65.8669 21.9609 65.6533C20.752 65.4361 19.6263 65.0816 18.5283 64.5225C17.4476 63.9725 16.4596 63.2545 15.6035 62.3965C14.7465 61.5404 14.0285 60.5534 13.4785 59.4736C12.9185 58.3746 12.5639 57.248 12.3467 56.0381C12.1331 54.8464 12.0614 53.6302 12.0293 52.4248C12.0146 51.8722 12.0076 51.3182 12.0049 50.7656C12.0003 50.1085 12 49.452 12 48.7949V28.2051C12 27.5479 12.0003 26.8916 12.0049 26.2344C12.0076 25.6817 12.0146 25.1279 12.0293 24.5752C12.0614 23.3698 12.1331 22.1536 12.3467 20.9619C12.5639 19.7521 12.9185 18.6263 13.4785 17.5273C14.0285 16.4467 14.7465 15.4596 15.6035 14.6025C16.4597 13.7464 17.4476 13.0275 18.5283 12.4775C19.6264 11.9184 20.752 11.5639 21.9609 11.3467C23.1526 11.1322 24.3698 11.0613 25.5752 11.0283C26.1278 11.0137 26.6818 11.0076 27.2354 11.0039C27.8915 11.0002 28.5489 11 29.2051 11H49.7949ZM45.6221 23.5205C44.2418 23.4026 43.2528 24.8195 43.8652 26.0547C43.8677 26.0596 43.9018 26.1266 44.9258 28.1543C43.2815 28.9887 41.7205 29.866 40.2607 30.7793C39.0444 31.5404 38.2563 32.0656 37.5488 32.5889C37.3707 32.7206 37.196 32.8545 37.0186 32.9932C36.4101 33.4685 36.3096 33.5507 34.5547 35.0586C33.089 33.2354 31.753 31.218 30.4434 28.8701C29.932 27.9533 29.4862 27.0652 29.1201 26.2334C28.9534 25.8547 28.8161 25.5174 28.7539 25.3398L28.5303 24.7012C28.1924 23.7368 27.1007 23.2579 26.1514 23.6523L24.9775 24.1396C24.1113 24.4996 23.6743 25.4629 23.9824 26.3428L24.2061 26.9824C24.3134 27.2887 24.4933 27.7326 24.7129 28.2314C25.1419 29.2062 25.6559 30.2331 26.2422 31.2842C27.7972 34.0719 28.6828 35.3432 31.2734 38.4814C29.3383 40.7635 27.652 43.1914 26.2422 45.7188C25.656 46.7697 25.1418 47.7959 24.7129 48.7705C24.4933 49.2695 24.3134 49.7142 24.2061 50.0205L23.9824 50.6592C23.6741 51.5391 24.1112 52.5023 24.9775 52.8623L26.1514 53.3506C27.1006 53.7449 28.1924 53.266 28.5303 52.3018L28.7539 51.6621C28.8162 51.4845 28.9535 51.148 29.1201 50.7695C29.4863 49.9376 29.9319 49.0488 30.4434 48.1318C32.0519 45.2482 32.5059 44.5478 34.5537 41.9717C36.1597 43.4312 38.0624 44.8472 40.2607 46.2227C41.0378 46.7088 41.576 47.0328 42.1143 47.3359C42.2298 47.4008 42.2306 47.4005 42.3467 47.4648C42.854 47.7454 43.3952 48.0307 44.918 48.8242C44.845 48.9713 44.7763 49.1107 44.6162 49.4336L43.8652 50.9482C43.2529 52.1834 44.2418 53.5994 45.6221 53.4814L54.6416 52.7109C55.9835 52.5963 56.7217 51.1079 55.9824 49.9893L51.0469 42.5215C50.29 41.3766 48.5586 41.4813 47.9492 42.71C47.7285 43.1642 47.4057 43.8211 47.0654 44.4961C45.397 43.6858 44.0384 42.9455 42.791 42.165C40.4065 40.6731 39.2705 39.8457 37.7822 38.4941C39.1304 37.3024 40.8098 36.0766 42.791 34.8369C44.2737 33.9092 44.9992 33.5175 47.0674 32.5391C47.1309 32.6659 47.2041 32.8118 47.3535 33.1094C47.8018 34.0008 47.8027 34.0005 47.9512 34.2949C48.559 35.5208 50.29 35.6255 51.0469 34.4805L55.9824 27.0137C56.7219 25.895 55.9835 24.4057 54.6416 24.291L45.6221 23.5205Z" fill="white"/>
<defs>
<linearGradient id="paint0_linear_103_28" x1="-14.5842" y1="42.3239" x2="39.7149" y2="100.373" gradientUnits="userSpaceOnUse">
<stop stop-color="#7200FF"/>
<stop offset="0.165924" stop-color="#A500FF"/>
<stop offset="0.425656" stop-color="#EC00B6"/>
<stop offset="0.493285" stop-color="#FF00A3"/>
<stop offset="0.713173" stop-color="#FF0060"/>
<stop offset="1" stop-color="#FF3E00"/>
</linearGradient>
</defs>
</svg>
