<svg width="209" height="31" viewBox="0 0 209 31" fill="none" xmlns="http://www.w3.org/2000/svg">
<path d="M8.85938 25.2969C7.50521 25.2969 6.28125 25.1094 5.1875 24.7344C4.10417 24.3594 3.17188 23.8125 2.39062 23.0938C1.61979 22.375 1.02604 21.5 0.609375 20.4688C0.203125 19.4375 0 18.2656 0 16.9531V16.9062H6.34375V16.9375C6.34375 17.5312 6.44271 18.0417 6.64062 18.4688C6.83854 18.8854 7.11979 19.2031 7.48438 19.4219C7.84896 19.6406 8.27604 19.75 8.76562 19.75C9.50521 19.75 10.0625 19.5208 10.4375 19.0625C10.8229 18.5938 11.0156 17.9115 11.0156 17.0156V2.34375H17.6406V17.0625C17.6406 18.8021 17.2969 20.2865 16.6094 21.5156C15.9219 22.7448 14.9219 23.6823 13.6094 24.3281C12.3073 24.974 10.724 25.2969 8.85938 25.2969ZM25.6719 25.1094C24.5156 25.1094 23.4948 24.8802 22.6094 24.4219C21.7344 23.9635 21.0469 23.3438 20.5469 22.5625C20.0573 21.7708 19.8125 20.8802 19.8125 19.8906V19.875C19.8125 18.7604 20.0885 17.8177 20.6406 17.0469C21.2031 16.276 22.0156 15.6719 23.0781 15.2344C24.1406 14.7865 25.4375 14.5104 26.9688 14.4062L34.0156 13.9375V17.5L28.0312 17.9219C27.3542 17.9635 26.8542 18.1146 26.5312 18.375C26.2188 18.6354 26.0625 18.9792 26.0625 19.4062V19.4219C26.0625 19.8698 26.2396 20.2135 26.5938 20.4531C26.9479 20.6927 27.4219 20.8125 28.0156 20.8125C28.526 20.8125 28.974 20.7292 29.3594 20.5625C29.7448 20.3854 30.0469 20.1458 30.2656 19.8438C30.4844 19.5417 30.5938 19.2031 30.5938 18.8281V13.4688C30.5938 12.9688 30.4323 12.5729 30.1094 12.2812C29.7865 11.9896 29.2969 11.8438 28.6406 11.8438C27.9844 11.8438 27.474 11.9688 27.1094 12.2188C26.7448 12.4688 26.526 12.7708 26.4531 13.125L26.4219 13.2812H20.7031L20.7188 13.0781C20.8125 11.901 21.1927 10.8802 21.8594 10.0156C22.5365 9.14062 23.474 8.46354 24.6719 7.98438C25.8802 7.50521 27.3229 7.26562 29 7.26562C30.6042 7.26562 32.0052 7.51562 33.2031 8.01562C34.401 8.50521 35.3333 9.19271 36 10.0781C36.6667 10.9635 37 11.9896 37 13.1562V24.8906H30.5938V22.5469H30.4688C30.1458 23.0885 29.75 23.5521 29.2812 23.9375C28.8229 24.3229 28.2917 24.6146 27.6875 24.8125C27.0833 25.0104 26.4115 25.1094 25.6719 25.1094ZM39.4219 24.8906V7.64062H45.8281V10.9062H45.9531C46.2656 9.79167 46.8594 8.90625 47.7344 8.25C48.6198 7.59375 49.6615 7.26562 50.8594 7.26562C51.6927 7.26562 52.4323 7.41667 53.0781 7.71875C53.7344 8.01042 54.2708 8.4375 54.6875 9C55.1146 9.5625 55.3958 10.25 55.5312 11.0625H55.6562C55.8542 10.3021 56.2031 9.64062 56.7031 9.07812C57.2031 8.50521 57.8177 8.0625 58.5469 7.75C59.276 7.42708 60.0781 7.26562 60.9531 7.26562C62.0781 7.26562 63.0625 7.51562 63.9062 8.01562C64.7604 8.51562 65.4271 9.21354 65.9062 10.1094C66.3854 10.9948 66.625 12.026 66.625 13.2031V24.8906H60.2188V14.875C60.2188 14.3229 60.1406 13.8698 59.9844 13.5156C59.8281 13.151 59.5938 12.8802 59.2812 12.7031C58.9792 12.5156 58.5938 12.4219 58.125 12.4219C57.6979 12.4219 57.3281 12.5208 57.0156 12.7188C56.7031 12.9167 56.4635 13.1979 56.2969 13.5625C56.1406 13.9167 56.0625 14.349 56.0625 14.8594V24.8906H49.9844V14.8906C49.9844 14.3385 49.9062 13.8802 49.75 13.5156C49.5938 13.151 49.3594 12.8802 49.0469 12.7031C48.7448 12.5156 48.3646 12.4219 47.9062 12.4219C47.4792 12.4219 47.1094 12.5208 46.7969 12.7188C46.4844 12.9167 46.2448 13.1979 46.0781 13.5625C45.9115 13.9271 45.8281 14.3594 45.8281 14.8594V24.8906H39.4219ZM68.9844 24.8906V7.64062H75.3906V10.9062H75.5156C75.8281 9.79167 76.4219 8.90625 77.2969 8.25C78.1823 7.59375 79.224 7.26562 80.4219 7.26562C81.2552 7.26562 81.9948 7.41667 82.6406 7.71875C83.2969 8.01042 83.8333 8.4375 84.25 9C84.6771 9.5625 84.9583 10.25 85.0938 11.0625H85.2188C85.4167 10.3021 85.7656 9.64062 86.2656 9.07812C86.7656 8.50521 87.3802 8.0625 88.1094 7.75C88.8385 7.42708 89.6406 7.26562 90.5156 7.26562C91.6406 7.26562 92.625 7.51562 93.4688 8.01562C94.3229 8.51562 94.9896 9.21354 95.4688 10.1094C95.9479 10.9948 96.1875 12.026 96.1875 13.2031V24.8906H89.7812V14.875C89.7812 14.3229 89.7031 13.8698 89.5469 13.5156C89.3906 13.151 89.1562 12.8802 88.8438 12.7031C88.5417 12.5156 88.1562 12.4219 87.6875 12.4219C87.2604 12.4219 86.8906 12.5208 86.5781 12.7188C86.2656 12.9167 86.026 13.1979 85.8594 13.5625C85.7031 13.9167 85.625 14.349 85.625 14.8594V24.8906H79.5469V14.8906C79.5469 14.3385 79.4688 13.8802 79.3125 13.5156C79.1562 13.151 78.9219 12.8802 78.6094 12.7031C78.3073 12.5156 77.9271 12.4219 77.4688 12.4219C77.0417 12.4219 76.6719 12.5208 76.3594 12.7188C76.0469 12.9167 75.8073 13.1979 75.6406 13.5625C75.474 13.9271 75.3906 14.3594 75.3906 14.8594V24.8906H68.9844ZM98.5469 24.8906V7.64062H104.953V24.8906H98.5469ZM101.75 6.09375C100.854 6.09375 100.099 5.79167 99.4844 5.1875C98.8802 4.58333 98.5781 3.86979 98.5781 3.04688C98.5781 2.21354 98.8802 1.5 99.4844 0.90625C100.099 0.302083 100.854 0 101.75 0C102.646 0 103.396 0.302083 104 0.90625C104.615 1.5 104.922 2.21354 104.922 3.04688C104.922 3.86979 104.615 4.58333 104 5.1875C103.396 5.79167 102.646 6.09375 101.75 6.09375ZM107.359 24.8906V7.64062H113.766V10.8438H113.891C114.318 9.67708 114.969 8.79167 115.844 8.1875C116.719 7.57292 117.807 7.26562 119.109 7.26562C121.005 7.26562 122.464 7.83854 123.484 8.98438C124.516 10.1302 125.031 11.7396 125.031 13.8125V24.8906H118.625V15.2188C118.625 14.3542 118.422 13.6719 118.016 13.1719C117.609 12.6719 117.005 12.4219 116.203 12.4219C115.703 12.4219 115.271 12.5417 114.906 12.7812C114.542 13.0208 114.26 13.349 114.062 13.7656C113.865 14.1823 113.766 14.6615 113.766 15.2031V24.8906H107.359ZM126.625 24.8906L133.984 2.34375H140.234V7.71875H138.078L133.594 24.8906H126.625ZM131.25 20.4062L132.625 15.7344H143.656L145.031 20.4062H131.25ZM142.688 24.8906L138.203 7.71875V2.34375H142.297L149.656 24.8906H142.688ZM151.328 30.3594V7.64062H157.734V10.75H157.875C158.146 10.0208 158.521 9.39583 159 8.875C159.49 8.35417 160.068 7.95833 160.734 7.6875C161.401 7.40625 162.141 7.26562 162.953 7.26562C164.401 7.26562 165.625 7.61458 166.625 8.3125C167.635 9 168.401 10.0156 168.922 11.3594C169.453 12.6927 169.719 14.3229 169.719 16.25V16.2656C169.719 18.1823 169.458 19.8125 168.938 21.1562C168.427 22.4896 167.672 23.5104 166.672 24.2188C165.682 24.9167 164.469 25.2656 163.031 25.2656C162.198 25.2656 161.438 25.1302 160.75 24.8594C160.073 24.5885 159.49 24.2031 159 23.7031C158.51 23.2031 158.13 22.6042 157.859 21.9062H157.734V30.3594H151.328ZM160.469 20.1094C161.031 20.1094 161.516 19.9531 161.922 19.6406C162.339 19.3281 162.656 18.8854 162.875 18.3125C163.104 17.7396 163.219 17.0573 163.219 16.2656V16.25C163.219 15.4479 163.104 14.7604 162.875 14.1875C162.646 13.6146 162.323 13.1771 161.906 12.875C161.5 12.5729 161.021 12.4219 160.469 12.4219C159.917 12.4219 159.432 12.5729 159.016 12.875C158.599 13.1771 158.276 13.6146 158.047 14.1875C157.818 14.7604 157.703 15.4531 157.703 16.2656V16.2812C157.703 17.0833 157.818 17.7708 158.047 18.3438C158.276 18.9167 158.594 19.3542 159 19.6562C159.417 19.9583 159.906 20.1094 160.469 20.1094ZM171.734 30.3594V7.64062H178.141V10.75H178.281C178.552 10.0208 178.927 9.39583 179.406 8.875C179.896 8.35417 180.474 7.95833 181.141 7.6875C181.807 7.40625 182.547 7.26562 183.359 7.26562C184.807 7.26562 186.031 7.61458 187.031 8.3125C188.042 9 188.807 10.0156 189.328 11.3594C189.859 12.6927 190.125 14.3229 190.125 16.25V16.2656C190.125 18.1823 189.865 19.8125 189.344 21.1562C188.833 22.4896 188.078 23.5104 187.078 24.2188C186.089 24.9167 184.875 25.2656 183.438 25.2656C182.604 25.2656 181.844 25.1302 181.156 24.8594C180.479 24.5885 179.896 24.2031 179.406 23.7031C178.917 23.2031 178.536 22.6042 178.266 21.9062H178.141V30.3594H171.734ZM180.875 20.1094C181.438 20.1094 181.922 19.9531 182.328 19.6406C182.745 19.3281 183.062 18.8854 183.281 18.3125C183.51 17.7396 183.625 17.0573 183.625 16.2656V16.25C183.625 15.4479 183.51 14.7604 183.281 14.1875C183.052 13.6146 182.729 13.1771 182.312 12.875C181.906 12.5729 181.427 12.4219 180.875 12.4219C180.323 12.4219 179.839 12.5729 179.422 12.875C179.005 13.1771 178.682 13.6146 178.453 14.1875C178.224 14.7604 178.109 15.4531 178.109 16.2656V16.2812C178.109 17.0833 178.224 17.7708 178.453 18.3438C178.682 18.9167 179 19.3542 179.406 19.6562C179.823 19.9583 180.312 20.1094 180.875 20.1094ZM200.141 25.2656C198.328 25.2656 196.802 25.026 195.562 24.5469C194.323 24.0573 193.365 23.3802 192.688 22.5156C192.01 21.651 191.604 20.6458 191.469 19.5L191.453 19.3594H197.641L197.672 19.4844C197.797 19.9844 198.057 20.375 198.453 20.6562C198.859 20.9375 199.422 21.0781 200.141 21.0781C200.557 21.0781 200.911 21.0365 201.203 20.9531C201.505 20.8594 201.734 20.7292 201.891 20.5625C202.057 20.3958 202.141 20.1979 202.141 19.9688V19.9531C202.141 19.6406 201.995 19.3906 201.703 19.2031C201.411 19.0052 200.911 18.8385 200.203 18.7031L197.078 18.125C195.943 17.9167 194.984 17.5833 194.203 17.125C193.422 16.6562 192.833 16.0729 192.438 15.375C192.042 14.6771 191.844 13.8854 191.844 13V12.9844C191.844 11.7865 192.167 10.7656 192.812 9.92188C193.458 9.06771 194.385 8.41146 195.594 7.95312C196.802 7.49479 198.24 7.26562 199.906 7.26562C201.688 7.26562 203.172 7.53125 204.359 8.0625C205.557 8.59375 206.458 9.29688 207.062 10.1719C207.667 11.0469 207.969 12.0104 207.969 13.0625V13.1719H202.156L202.141 13.0312C202.099 12.625 201.885 12.2604 201.5 11.9375C201.125 11.6146 200.594 11.4531 199.906 11.4531C199.521 11.4531 199.182 11.5 198.891 11.5938C198.599 11.6875 198.37 11.8229 198.203 12C198.047 12.1667 197.969 12.375 197.969 12.625V12.6406C197.969 12.8385 198.026 13.0156 198.141 13.1719C198.255 13.3177 198.458 13.4479 198.75 13.5625C199.042 13.6771 199.448 13.7865 199.969 13.8906L203.094 14.4688C204.958 14.8125 206.323 15.3646 207.188 16.125C208.052 16.8854 208.484 17.9167 208.484 19.2188V19.2344C208.484 20.474 208.135 21.5469 207.438 22.4531C206.74 23.349 205.766 24.0417 204.516 24.5312C203.266 25.0208 201.807 25.2656 200.141 25.2656Z" fill="url(#paint0_linear_6_11)"/>
<defs>
<linearGradient id="paint0_linear_6_11" x1="28.6274" y1="6.04721" x2="39.0634" y2="51.6514" gradientUnits="userSpaceOnUse">
<stop stop-color="#7200FF"/>
<stop offset="0.194513" stop-color="#A500FF"/>
<stop offset="0.404197" stop-color="#EC00B6"/>
<stop offset="0.599656" stop-color="#FF00A3"/>
<stop offset="0.64497" stop-color="#FF008C"/>
<stop offset="0.838111" stop-color="#FF0060"/>
<stop offset="1" stop-color="#FF3E00"/>
</linearGradient>
</defs>
</svg>
