<svg width="40" height="40" viewBox="0 0 40 40" fill="none" xmlns="http://www.w3.org/2000/svg">
<rect width="40" height="40" rx="8" fill="url(#paint0_linear_129_33)"/>
<path fill-rule="evenodd" clip-rule="evenodd" d="M17.9999 6C23.8578 6.00047 29.9999 6 30.9999 6C32.9985 6.2 33.8007 7.00467 33.9999 9C33.9999 16.3419 33.9999 27.8 33.9999 27.8C33.9999 27.8 33.9999 27.8538 33.9999 27.8809C33.9999 28.3695 34 29.5414 33.9999 30C33.9575 30.519 33.9684 31.2662 33.6657 32C33.2965 32.8948 32.7453 33.3619 31.9978 33.67C31.2504 33.9781 30.5189 33.9204 29.9999 33.9628C29.5413 34.0003 28.3694 34.0001 27.8808 34C27.8537 34 27.8267 34 27.7999 34H12.1999C12.1731 34 12.1462 34 12.1191 34C11.6304 34.0001 10.4585 34.0003 9.9999 33.9628C9.48087 33.9204 8.54871 33.8612 7.9999 33.67C7.45109 33.4788 6.62492 32.8363 6.32997 32C6.06594 31.2514 6.0424 30.519 6 30C6 30 5.9998 28.3695 5.99991 27.8809C5.99992 27.8538 5.99993 27.8268 5.99993 27.8C5.99993 27.8 6 25.0935 5.99991 24C5.99988 23.5 5.9999 22 7.9999 22C8.9999 22 8.9999 22 9.9999 22C11.9999 22 12 23.5 12 24L11.9999 26C11.9998 27.5 12.4999 28.0007 13.9999 28.0007C13.9999 28.0007 24.9999 28 25.9999 28.0007C27.4999 28.0007 27.9999 27.5 27.9999 26C27.9999 25.246 27.9997 17.6703 27.9999 13.9883C28 12.5 27.5 12 25.9999 12C22.4852 12 18.9999 12 17.9999 12C17.4999 12 15.9999 12 15.9999 10V8C15.9999 6 17.4999 5.99996 17.9999 6Z" fill="white"/>
<defs>
<linearGradient id="paint0_linear_129_33" x1="2.61941" y1="3.37104" x2="40" y2="41.7901" gradientUnits="userSpaceOnUse">
<stop offset="0.0802353" stop-color="#4823FF"/>
<stop offset="0.546308" stop-color="#E732DF"/>
<stop offset="1" stop-color="#F71A1A"/>
</linearGradient>
</defs>
</svg>
