<svg width="58" height="58" viewBox="0 0 58 58" fill="none" xmlns="http://www.w3.org/2000/svg">
<g clip-path="url(#clip0_80_53)">
<rect width="58" height="58" rx="13.5333" fill="white"/>
<rect width="58" height="58" fill="url(#paint0_linear_80_53)"/>
<path d="M36.6064 8.68262C37.0919 8.68262 37.5777 8.68284 38.0625 8.68555C38.4715 8.68826 38.8801 8.69229 39.2891 8.70312C40.1794 8.72751 41.0772 8.78008 41.958 8.93848C42.8513 9.09898 43.6838 9.36129 44.4951 9.77441C45.2934 10.1807 46.0231 10.7113 46.6562 11.3438C47.2894 11.9769 47.8193 12.7065 48.2256 13.5049C48.6394 14.3169 48.902 15.149 49.0625 16.043C49.2203 16.9233 49.2722 17.8214 49.2959 18.7119C49.3067 19.1202 49.3117 19.5292 49.3145 19.9375C49.3172 20.423 49.3174 20.9081 49.3174 21.3936V36.6064C49.3174 37.0919 49.3172 37.577 49.3145 38.0625C49.3117 38.4708 49.3067 38.8798 49.2959 39.2881C49.2722 40.1786 49.2203 41.0767 49.0625 41.957C48.902 42.8509 48.6393 43.6832 48.2256 44.4951C47.8193 45.2928 47.2894 46.0228 46.6562 46.6553C46.0231 47.2891 45.2934 47.8193 44.4951 48.2256C43.6838 48.6387 42.8513 48.901 41.958 49.0615C41.0772 49.2192 40.1794 49.2722 39.2891 49.2959C38.8801 49.3067 38.4715 49.3117 38.0625 49.3145C37.5777 49.3172 37.0919 49.3174 36.6064 49.3174H21.3936C20.9088 49.3174 20.4233 49.3172 19.9385 49.3145C19.5294 49.3117 19.1203 49.3067 18.7119 49.2959C17.8214 49.2722 16.9224 49.2193 16.042 49.0615C15.1488 48.901 14.3171 48.6387 13.5059 48.2256C12.7074 47.8192 11.9772 47.2891 11.3447 46.6553C10.7115 46.0227 10.1817 45.2929 9.77539 44.4951C9.3616 43.6831 9.09898 42.851 8.93848 41.957C8.78069 41.0766 8.72781 40.1786 8.7041 39.2881C8.69327 38.8798 8.68758 38.4708 8.68555 38.0625C8.68216 37.577 8.68262 37.0919 8.68262 36.6064V21.3936C8.68262 20.9081 8.68216 20.423 8.68555 19.9375C8.68758 19.5292 8.69327 19.1202 8.7041 18.7119C8.7278 17.8214 8.78069 16.9234 8.93848 16.043C9.09898 15.149 9.36159 14.3169 9.77539 13.5049C10.1817 12.7066 10.7116 11.9769 11.3447 11.3438C11.9772 10.7113 12.7075 10.1807 13.5059 9.77441C14.3171 9.36133 15.1488 9.09899 16.042 8.93848C16.9224 8.78 17.8213 8.72751 18.7119 8.70312C19.1203 8.69229 19.5294 8.68826 19.9385 8.68555C20.4233 8.68284 20.9088 8.68262 21.3936 8.68262H36.6064ZM20.8955 18.8047C20.6458 18.0923 19.839 17.7388 19.1377 18.0303L18.2705 18.3906C17.6305 18.6566 17.3073 19.3684 17.5352 20.0186L17.7012 20.4902C17.7805 20.7165 17.9129 21.0454 18.0752 21.4141C18.3921 22.1342 18.7719 22.8924 19.2051 23.6689C20.3539 25.7285 21.0079 26.6678 22.9219 28.9863C21.4922 30.6723 20.2466 32.4658 19.2051 34.333C18.7719 35.1095 18.3921 35.8678 18.0752 36.5879C17.913 36.9563 17.7805 37.2845 17.7012 37.5107L17.5352 37.9834C17.3074 38.6335 17.6305 39.3454 18.2705 39.6113L19.1377 39.9717C19.839 40.2631 20.6458 39.9088 20.8955 39.1963L21.0605 38.7246C21.1065 38.5934 21.2079 38.3443 21.3311 38.0645C21.6016 37.4499 21.9308 36.7936 22.3086 36.1162C23.4971 33.9856 23.8328 33.4678 25.3457 31.5645C26.5323 32.6429 27.9382 33.6897 29.5625 34.7061C30.1363 35.0651 30.5341 35.3034 30.9316 35.5273C31.0169 35.5752 31.0171 35.5756 31.1025 35.623C31.4774 35.8303 31.8778 36.0406 33.0029 36.627C32.949 36.7358 32.8977 36.8392 32.7793 37.0781L32.2246 38.1963C31.7722 39.1087 32.5029 40.1552 33.5225 40.0684L40.1875 39.499C41.1786 39.4141 41.7238 38.3146 41.1777 37.4883L37.5312 31.9717C36.9721 31.1258 35.6924 31.2025 35.2422 32.1104C35.0791 32.4459 34.8402 32.931 34.5889 33.4297C33.3564 32.8311 32.3532 32.2846 31.4316 31.708C29.6697 30.6056 28.8311 29.9937 27.7314 28.9951C28.7275 28.1148 29.9681 27.2097 31.4316 26.2939C32.527 25.6086 33.0628 25.3186 34.5908 24.5957C34.6377 24.6895 34.6923 24.7976 34.8027 25.0176C35.1338 25.6758 35.1335 25.6761 35.2432 25.8936C35.6923 26.7993 36.9721 26.8762 37.5312 26.0303L41.1777 20.5137C41.7239 19.6873 41.1787 18.5879 40.1875 18.5029L33.5225 17.9326C32.5031 17.8459 31.7726 18.8923 32.2246 19.8047C32.2257 19.8069 32.2267 19.8076 33.0088 21.3564C31.794 21.9729 30.6409 22.6212 29.5625 23.2959C28.6638 23.8582 28.0813 24.2462 27.5586 24.6328C27.4269 24.7302 27.2971 24.8292 27.166 24.9316C26.7168 25.2826 26.6421 25.3441 25.3457 26.458C24.2628 25.1111 23.2761 23.6203 22.3086 21.8857C21.9307 21.2083 21.6016 20.5512 21.3311 19.9365C21.208 19.657 21.1065 19.4085 21.0605 19.2773L20.8955 18.8047Z" fill="white"/>
</g>
<defs>
<linearGradient id="paint0_linear_80_53" x1="-10.8447" y1="31.4717" x2="29.5316" y2="74.6365" gradientUnits="userSpaceOnUse">
<stop stop-color="#7200FF"/>
<stop offset="0.165924" stop-color="#A500FF"/>
<stop offset="0.425656" stop-color="#EC00B6"/>
<stop offset="0.493285" stop-color="#FF00A3"/>
<stop offset="0.713173" stop-color="#FF0060"/>
<stop offset="1" stop-color="#FF3E00"/>
</linearGradient>
<clipPath id="clip0_80_53">
<rect width="58" height="58" rx="13.5333" fill="white"/>
</clipPath>
</defs>
</svg>
